<svg version="1.1" xmlns="http://www.w3.org/2000/svg" viewBox="-334.2 -1065.2 6105.16611328125 2247.3772827148437"><desc>Created with Snap</desc><defs></defs><g><g><g transform="matrix(1,0,0,-1,0,0)"><g transform="matrix(1,0,0,1,0,0)"><path d="M65 664Q139 680 205 680Q271 680 322 675Q374 670 426 656Q536 625 562 572Q569 561 569 546Q569 502 492 451Q441 417 346 382Q579 369 662 314Q708 285 708 246Q708 192 632 134Q549 72 420 31Q301 -7 199 -7Q121 -7 65 16Q63 80 60 148Q52 299 52 402Q52 506 59 618Q48 618 39 620Q30 623 30 640Q30 664 65 664ZM131 299L155 66Q316 75 419 104Q522 134 567 168Q613 203 613 235Q613 277 553 302Q488 328 380 328Q273 328 131 299ZM248 615L223 615Q141 615 131 598L121 397Q211 397 340 440Q424 469 463 504Q483 522 483 541Q483 560 468 572Q454 585 431 593Q409 601 381 605Q354 610 328 612Q288 615 248 615Z" fill="#ff0000" style=""></path></g><g transform="matrix(1,0,0,1,728,0)"><g transform="matrix(1.9385,0,0,1.9385,-204.4462,1039.3433)"><g transform="matrix(1,0,0,-1,0,0)"><path d="M601,512.36c-1.52-6.1-19.2-7.15-41.87-3.12-8.8.28-11.7-8.15-12.9-12.94l-11.1-47.52c21.5-5.38,35.4-16.23,41.29-32.31,15.22-41.51-30-102.23-31.91-104.8l-2.08-2.76-81.37,16.32-.61,3.75c-9.16,56-4.21,92.08,15.14,110.3a46.44,46.44,0,0,0,24.89,11.89,77.81,77.81,0,0,0,24.35-.3l11.37,48.64c1.63,11.42-2.4,14.77-5.61,16.38-19.52,6.82-35.77,16.82-34.36,22.5,1.81,7.29,26.73,7.37,55.66.18S602.82,519.65,601,512.36ZM483.14,431.27c-15.85-14.93-20-47.47-12.42-96.76l67-13.44c8.4,12,39.89,60.24,28.37,91.63-4.74,12.91-16.75,21.64-35.71,25.93C509.3,443.4,493.4,440.92,483.14,431.27Zm80.41,98.13q-4.12,1.36-8.33,2.53c-5.59,1.56-11.23,2.93-16.89,4.19a113,113,0,0,1-17.42,2.65,50.09,50.09,0,0,1-9.06-.19l-2.32-.39a23.41,23.41,0,0,1-2.35-.63,14.35,14.35,0,0,1-2.38-1,10.61,10.61,0,0,1-1.22-.73,6.3,6.3,0,0,1-.62-.49,3,3,0,0,1-.34-.31,3.5,3.5,0,0,1-.44-.51l4.3-3a.28.28,0,0,0-.06-.08l0,0s0,0,0,0l0,0a2.12,2.12,0,0,0,.21.2,7.29,7.29,0,0,0,.62.43,9.56,9.56,0,0,0,1.57.77,19,19,0,0,0,1.8.62l1.93.46a44.44,44.44,0,0,0,8.23.75,112.49,112.49,0,0,0,17-1.37c5.72-.8,11.42-1.7,17.08-2.8q4.25-.83,8.45-1.84a51.64,51.64,0,0,0,8.25-2.6A52.61,52.61,0,0,1,563.55,529.4Z" fill="#ff0000" style=""></path><path d="M440.58,249.82C413,210.5,360.24,207.3,348.8,203.62c13.26-3.18,73.65,5.91,84.57,14.08,8.21,6.15,14.62,14.33,20.36,22.73,3,4.36,5.78,8.82,8.62,13.26,1.39,2.16,3,4.26,4.22,6.5.57,1,2.14,4.54,2.46,1.23,1.39-14.08,1.33-29-1.26-43-.8-4.32-1.48-9.44-3.65-13.3-1.83-3.25-3.64-6.24-3.75-10.17s2.59-8.12,6.41-8a7.34,7.34,0,0,1,5.08,2.93c3.05,3.7,3.81,8.78,3.82,13.58,0,4.19-2,10.81,1.26,14.06a2.35,2.35,0,0,0,1,.65c1.33.39,2.39-1.16,2.73-2.5.69-2.74.46-5.67,1.3-8.37s3.43-5.26,6.17-4.59a5.27,5.27,0,0,1,3.53,4.26,16.42,16.42,0,0,1-.33,5.79c-1,6-2.17,12.49-1.72,18.55a143.9,143.9,0,0,1,.28,17.26c-1.52,34-3.69,67.88-3.45,102,.15,20.79,5.49,41.9,17.13,59.36,9.17,12,29.23,21,42.91,11.06,15.86-11.57,16.41-42.3,16.41-42.3s10.71,45.88-29.83,54.94a69.52,69.52,0,0,1-16.57,1.83c-40.07-.85-43.52-44.12-43.32-74.67.08-12.77.07-25.15-2.65-37.69a239.38,239.38,0,0,0-10.16-34.27C455.19,275.33,448.94,261.73,440.58,249.82Z" fill="#ff0000" style=""></path><path d="M135.76,307c-8.22,16.64-12.32,34.37-14.81,52.71-5,36.82-1.35,75.55,15.52,108.66,28.44,55.83,91.47,83.34,150.94,64a185,185,0,0,0,33.53-14.37c14.74-8.28,28-19.08,39.9-31a250.07,250.07,0,0,0,40.34-53c5.79-10.19,10.78-23.26,4.34-33.05q-7.84,7.18-16.34,13.61c-1.66,1.26-3.83,2.55-5.69,1.61-2.06-1-2.1-3.9-3.1-6-1.89-4-7.56-4.76-11.51-2.84s-6.6,5.72-9.15,9.31c-15.81,22.21-34.86,42.62-58.37,56.43s-51.88,20.57-78.53,14.82c-28.87-6.22-53.56-35.87-63.71-62.41a118.21,118.21,0,0,1-6.45-58.23c1.27-9.1,3.18-19.49,7.4-27.75,1.76-3.45,13.05-14.91,9.25-5.2A34.24,34.24,0,0,0,167,344.24c-.12,1.71-.06,3.59,1,4.91,1.81,2.18,5.54,1.55,7.51-.48s2.7-4.93,3.49-7.65c4.29-14.76,13.25-26.23,22.45-38.14,12.78-16.55,28-30.92,42.69-45.71,29-28.92,56.52-40.48,96.89-43.42,25.63-1.87,55-1.45,79.23,8,13.8,5.37,26.48,14.82,33.24,28,1.29-4.57-4.63-11.59-6.92-15.4a75.21,75.21,0,0,0-11-14.38,114.46,114.46,0,0,0-25.58-19.71c-15-8.73-34.23-12.73-50.88-17.18s-35.88-6.17-53.11-6.42c-9.09-.13-39.52-3.63-42.92,8.44-1.93,6.89,7.36,8.23-.75,13.66-6.51,4.37-15.34,6.8-22.44,10.2-15.2,7.29-30.06,15.52-43.13,26.26C170.89,255.2,149.69,278.74,135.76,307Z" fill="#ff0000" style=""></path><desc>Created with Snap</desc><defs></defs></g></g></g><g transform="matrix(1,0,0,1,1706.7663,0)"><path d="M522 555Q457 619 378 619Q303 619 234 562Q147 490 114 376Q102 335 102 308Q102 281 104 266Q104 167 171 114Q234 65 332 65Q466 76 589 168Q623 194 661 218Q675 218 689 214Q704 210 704 191Q605 105 537 67Q411 -1 309 -1Q302 -1 296 -1Q185 -1 106 68Q22 141 22 250Q22 332 51 407Q81 482 132 539Q184 597 254 631Q325 665 406 665Q475 665 496 646Q522 623 522 555Z" fill="#ff0000" style=""></path></g><g transform="matrix(1,0,0,1,2431.7663,0)"><path d="M46 168Q22 222 22 295Q22 368 45 424Q69 481 110 522Q197 607 328 607Q465 607 554 544Q654 472 654 338Q654 172 577 93Q501 14 339 14Q114 14 46 168ZM104 315Q104 79 342 79Q459 79 532 149Q605 218 605 330Q605 435 518 490Q444 538 331 538Q241 538 172 473Q104 408 104 315Z" fill="#ff0000" style=""></path></g><g transform="matrix(1,0,0,1,3117.7663,0)"><path d="M763 166Q813 328 879 758Q942 758 945 719Q946 707 946 702Q947 697 943 667Q939 638 931 585Q924 532 913 462Q902 392 888 316Q854 137 818 14Q782 -11 762 6Q753 15 746 30Q739 46 730 66Q717 83 682 156Q647 229 625 272Q604 315 584 352Q538 435 507 449Q471 393 379 142Q363 98 350 60Q337 23 328 0L266 3L16 581Q14 586 14 591Q14 596 17 601Q21 606 30 610Q47 616 64 616Q81 616 88 609Q96 603 100 593Q105 583 108 571Q111 559 119 540Q128 521 144 484Q161 447 180 406Q199 365 218 324Q237 284 254 250Q290 175 299 166Q415 452 442 505Q469 559 476 571Q487 588 493 588Q536 588 638 396Q666 345 690 298Q749 184 763 166Z" fill="#ff0000" style=""></path></g><g transform="matrix(1,0,0,1,4080.7663,0)"><path d="M105 565L105 16Q105 -1 81 -1Q63 -1 38 16Q26 43 26 145Q26 247 28 313Q30 380 32 436Q38 558 38 565Q67 582 86 582Q105 582 105 565Z" fill="#ff0000" style=""></path></g><g transform="matrix(1,0,0,1,4235.7663,0)"><path d="M605 615L608 353Q608 49 583 -3L510 3Q455 98 325 270Q274 338 223 405Q173 472 131 538Q111 449 111 182Q111 80 107 10Q88 -8 65 -8Q43 -8 34 -4Q25 1 25 11Q25 22 27 44Q30 67 33 120Q37 173 40 232Q48 386 48 497Q48 609 46 681Q68 701 80 710Q92 719 107 709Q122 700 145 668Q169 637 212 575Q359 366 501 183L520 681Q531 701 542 708Q553 716 571 716Q606 716 606 652L605 615Z" fill="#ff0000" style=""></path></g><g transform="matrix(1,0,0,1,4877.7663,0)"><path d="M130 630L353 635Q453 635 486 622L486 573Q459 569 412 568Q365 568 312 567Q164 564 110 552Q93 472 94 443Q95 414 96 398Q100 359 100 306Q168 306 255 318Q343 330 391 335Q439 341 490 341L490 286L107 238L113 74Q212 74 315 83Q419 93 472 97Q526 102 586 102Q586 82 574 64Q550 32 531 45Q355 26 216 15Q78 4 30 0L34 638Q60 630 130 630Z" fill="#ff0000" style=""></path></g></g></g><g transform="matrix(0.75,0,0,0.75,0,865.2273)"><g transform="matrix(1,0,0,-1,0,0)"><path d="M1017 649Q1013 647 1010 644Q1007 642 1004 640Q1004 632 1002 625Q1000 619 997 612Q995 606 994 600Q994 594 997 588Q991 586 985 580Q980 574 976 569Q972 565 971 560Q970 555 967 551Q966 549 966 546Q967 543 967 541Q967 535 963 531Q959 527 959 516Q959 511 951 504Q944 497 945 488Q942 487 940 484Q938 481 935 480Q936 475 934 473Q932 471 932 468Q930 458 925 452Q920 446 913 443Q913 432 906 426Q899 421 898 410Q895 408 892 406Q890 405 887 404Q888 398 886 394Q885 390 885 384Q879 380 878 372Q877 364 870 361Q870 356 867 352Q865 348 867 343Q864 342 859 335Q855 328 851 320Q848 312 846 304Q844 296 844 293Q844 291 840 290Q837 289 835 287Q837 281 835 274Q833 268 830 261Q827 255 825 248Q823 242 826 235Q817 220 808 210Q799 201 800 181Q798 180 794 175Q790 170 790 168Q792 155 788 153Q784 152 789 146Q787 142 783 135Q779 128 774 121Q769 114 765 107Q762 101 762 98Q762 96 763 93Q765 90 766 88Q759 87 760 78Q762 70 757 68Q759 63 757 59Q755 55 759 51Q754 45 748 40Q749 34 746 28Q743 23 739 17Q735 11 730 6Q726 1 724 1Q718 -1 713 1Q708 4 703 8Q699 12 694 16Q690 21 685 23Q677 37 672 43Q667 50 657 51Q659 58 655 60Q651 63 649 68Q643 78 638 87Q634 96 623 101Q621 112 613 121Q605 130 601 144Q600 147 595 146Q591 145 588 146Q587 157 582 164Q577 171 575 181Q572 183 568 184Q565 185 562 187Q564 196 557 201Q551 207 549 211Q543 224 536 226Q538 234 534 236Q530 239 527 244Q525 247 525 250Q525 254 523 257Q516 268 512 277Q509 286 501 285Q501 295 499 295Q498 295 497 296Q495 298 492 308Q489 318 486 322Q476 310 471 307Q466 305 466 298Q466 291 463 288Q460 285 457 281Q455 277 452 274Q450 271 445 270Q444 265 442 260Q441 256 436 254Q437 249 436 246Q435 244 434 239Q427 231 425 229Q423 227 420 225Q418 224 417 222Q416 221 419 219Q419 215 413 212Q408 210 410 200Q404 199 402 192Q401 186 393 187Q398 183 393 180Q389 178 389 175Q386 168 383 162Q380 157 374 155Q373 152 375 150Q377 149 376 144Q371 143 369 139Q368 135 363 135Q365 129 363 122Q361 120 359 118Q357 116 354 116Q354 111 352 107Q350 104 352 99Q346 99 346 94Q347 89 345 86Q343 83 341 81Q339 80 337 77Q335 74 335 70Q336 67 335 64L324 42Q323 40 323 37Q323 34 322 31Q319 26 315 23Q311 21 309 16Q306 15 303 16Q300 18 297 18Q295 19 294 17Q293 16 293 10Q285 8 280 1Q275 -6 267 -8Q259 -1 252 6Q246 13 237 18Q234 27 231 36Q229 45 224 53Q225 70 221 82Q218 94 205 105Q203 113 201 123Q199 134 189 138Q192 144 191 149Q190 154 187 158Q185 163 183 168Q182 173 185 179Q177 185 170 194Q166 199 165 206Q165 214 157 218Q155 229 150 239Q145 250 142 261Q140 264 138 267Q136 270 131 270Q131 279 127 287Q124 295 124 304Q119 313 111 324Q106 332 104 343Q102 354 94 361Q94 374 85 382Q81 394 79 400Q77 406 75 413Q69 419 69 420Q69 421 68 423Q66 426 63 427Q61 429 59 432Q57 436 58 440Q60 445 55 447Q55 469 38 484Q38 500 29 508Q29 515 27 519Q25 524 22 528Q20 532 18 536Q16 540 16 547Q9 559 9 565Q9 571 1 573Q5 582 0 587Q-4 592 -6 599Q-9 610 -9 617Q-8 625 -16 636Q-23 657 -30 668Q-36 680 -36 694Q-36 713 -24 718Q-12 724 4 724Q13 724 19 720Q26 716 29 716Q31 713 32 709Q34 706 36 703Q38 700 40 698Q42 697 44 694Q48 689 50 682Q53 676 59 673Q61 665 61 656Q61 647 68 642L72 629Q71 618 77 610Q83 602 85 597Q89 590 91 583Q94 576 96 569Q100 567 102 563Q104 559 109 558Q111 535 122 519Q123 513 123 506Q123 500 127 495Q132 491 132 487Q132 484 133 482Q141 470 142 463Q143 457 146 452Q148 449 150 447Q153 446 155 443Q159 430 163 419Q167 408 172 408Q175 380 194 363Q190 356 195 349Q200 343 205 339Q204 331 206 327Q209 324 215 319Q213 315 214 313Q215 311 217 309Q219 307 221 305Q224 304 224 301Q224 289 224 290Q225 292 228 289Q230 288 230 280Q231 272 233 270Q235 265 237 261Q239 257 241 252Q248 237 253 227Q258 217 254 207Q263 196 268 182Q274 169 283 157Q294 172 299 181Q304 190 306 200Q312 201 313 206Q314 211 319 213Q320 221 323 226Q327 232 331 237Q336 243 339 248Q343 254 345 261Q349 263 351 265Q354 268 358 270Q359 281 365 285Q371 290 376 298L376 317Q387 318 389 327Q392 337 389 345Q400 350 403 358Q406 367 406 378Q406 382 410 384Q415 386 417 389Q415 398 423 397Q424 407 429 413Q434 420 434 428Q434 440 426 451Q419 462 415 473Q412 480 404 480Q405 486 401 486Q398 487 395 491Q397 498 394 499Q391 501 389 506Q387 511 386 515Q386 520 384 525Q378 531 378 534Q379 537 378 540Q376 545 372 547Q369 549 367 553Q365 557 365 561Q365 565 363 569Q360 574 357 576Q354 579 354 586Q345 592 345 594Q346 597 346 599Q346 604 343 604Q341 605 339 608Q341 618 337 619Q333 620 335 625Q331 627 327 627Q323 628 319 629Q321 636 320 639Q319 642 315 647Q317 652 320 657Q323 663 328 666Q326 674 329 675Q333 676 335 681Q340 683 344 682Q349 682 354 683Q359 685 362 687Q366 690 371 690Q383 690 391 679Q400 669 410 664Q412 659 414 654Q416 649 417 644Q422 638 427 630Q432 622 430 614Q435 606 440 602Q446 599 445 588Q450 586 451 582Q452 578 458 579Q458 575 455 574Q453 573 452 571Q454 566 458 564Q462 562 467 560Q466 551 468 546Q471 541 475 536Q480 531 480 523Q480 516 488 510Q493 511 496 516Q499 521 501 525Q508 535 508 540Q509 546 510 551Q514 552 515 555Q517 559 518 563Q519 567 520 570Q522 573 527 573Q526 578 527 580Q529 582 529 586Q547 597 549 621Q552 620 553 623Q555 627 558 629Q563 642 571 648Q579 654 584 657Q587 665 591 672Q596 679 601 686Q616 689 628 691Q640 693 655 690Q656 685 659 680Q662 675 664 670Q666 662 665 656Q665 651 670 644Q670 642 668 639Q666 636 670 634Q666 624 660 618Q655 612 655 601Q647 597 642 594Q638 592 640 582Q636 582 634 580Q633 578 629 579Q627 572 624 569Q621 566 623 558Q615 551 616 548Q617 546 617 541Q613 536 605 536Q605 532 603 530Q602 528 600 526Q599 525 597 523Q596 521 597 517Q593 515 587 506Q581 497 579 497Q584 488 581 488Q579 488 577 486Q573 484 571 480Q569 476 564 475Q561 450 540 432Q543 424 545 414Q547 405 558 404Q554 397 556 388Q559 379 566 376Q564 368 567 365Q571 362 573 356Q574 354 574 349Q574 344 579 345Q576 337 578 331Q581 325 584 319Q588 314 592 308Q596 303 597 296Q599 292 601 288Q604 285 610 285Q609 280 613 277Q618 274 620 270Q624 263 625 255Q626 247 638 246Q639 235 645 229Q652 224 652 221Q656 206 662 200Q669 195 672 187Q681 188 688 183Q688 179 686 171Q684 164 691 164Q694 164 696 168Q699 173 703 174Q704 183 708 190Q712 197 716 203Q720 210 723 217Q727 225 727 235Q731 236 731 240Q731 244 735 246Q737 251 734 252Q732 254 733 259Q738 265 741 272Q745 279 753 283Q752 294 756 299Q760 304 761 313Q770 336 783 352Q783 365 784 366Q786 367 787 369Q789 373 788 376Q787 380 789 384Q791 389 794 392Q798 395 800 400Q802 404 803 408Q804 413 809 415Q810 419 810 420Q810 421 809 426Q812 427 814 428Q817 430 820 432Q821 442 824 449Q828 457 832 464Q837 471 840 478Q844 486 844 497Q850 499 854 504Q858 510 860 516Q863 522 866 528Q869 534 874 538Q873 549 878 554Q883 559 883 569Q889 573 889 575Q889 577 891 577Q891 587 896 599Q900 615 913 625Q910 629 910 632Q911 636 913 639Q915 643 916 647Q918 651 917 657Q921 658 922 661Q923 664 926 666Q926 677 930 681Q934 686 939 694Q940 696 939 700Q939 705 941 707Q946 716 956 719Q966 723 977 723Q988 723 999 720Q1010 717 1017 712Q1019 700 1022 689Q1025 678 1025 666Q1025 661 1020 659Q1015 658 1017 649ZM1166 49Q1164 46 1162 43Q1160 41 1159 38Q1153 36 1149 33Q1145 31 1138 31Q1125 18 1111 11Q1105 16 1097 17Q1090 19 1082 18Q1082 19 1079 22Q1076 26 1072 29Q1069 33 1066 36Q1063 40 1062 40Q1062 52 1059 64Q1057 76 1057 87Q1057 95 1060 103Q1063 111 1063 119Q1063 128 1062 137Q1062 146 1062 155Q1062 159 1063 162Q1064 165 1064 169Q1064 174 1061 178Q1059 183 1059 188Q1059 193 1060 197Q1062 201 1062 206Q1062 213 1057 218Q1058 223 1060 226Q1062 229 1064 234Q1057 254 1062 270Q1067 286 1067 306Q1067 310 1065 312Q1063 315 1062 319Q1067 326 1064 330Q1061 335 1059 340Q1062 343 1062 351Q1062 359 1062 363Q1063 368 1061 370Q1060 372 1059 377Q1064 383 1060 395Q1057 407 1057 415Q1057 419 1057 426Q1058 434 1058 442Q1058 450 1058 457Q1058 464 1057 468Q1055 471 1053 474Q1051 477 1051 481Q1051 486 1053 492Q1055 498 1054 503Q1059 506 1061 507Q1063 508 1069 506Q1071 513 1076 520Q1081 527 1089 527Q1093 527 1096 524Q1099 521 1102 519Q1105 517 1108 516Q1111 516 1114 521Q1120 519 1123 514Q1126 510 1134 509Q1136 502 1140 495Q1144 489 1144 482Q1144 477 1142 472Q1141 468 1141 463Q1141 460 1142 457Q1144 454 1144 450Q1144 444 1142 438Q1141 432 1141 425Q1141 419 1144 415Q1147 412 1147 407Q1147 399 1146 397Q1146 395 1151 388Q1152 383 1150 380Q1149 377 1149 374Q1149 369 1151 366Q1154 363 1154 360Q1154 357 1152 354Q1151 351 1151 348Q1151 323 1154 301Q1155 295 1157 289Q1159 284 1159 279Q1159 273 1157 267Q1156 262 1156 256Q1156 244 1157 232Q1159 221 1157 209Q1159 204 1159 199Q1159 195 1164 193Q1162 188 1159 186Q1157 184 1159 177Q1157 169 1161 165Q1165 161 1165 157Q1165 156 1162 154Q1159 153 1159 148Q1159 144 1161 141Q1164 139 1164 135Q1164 130 1163 125Q1162 120 1162 115Q1162 104 1165 92Q1168 80 1158 70Q1163 65 1162 59Q1161 53 1166 49ZM1770 463L1776 463Q1768 461 1767 454Q1767 448 1767 440Q1767 433 1768 426Q1769 420 1771 418Q1763 412 1765 407Q1768 403 1770 396Q1764 386 1766 371Q1768 357 1768 346Q1768 342 1766 338Q1765 335 1765 331Q1765 325 1767 319Q1770 313 1770 306Q1770 296 1767 288Q1765 280 1768 269Q1760 260 1761 248Q1763 237 1763 226Q1763 221 1761 216Q1759 212 1758 207Q1756 199 1758 192Q1760 185 1755 177Q1760 169 1760 160Q1760 151 1760 143Q1760 135 1763 125Q1767 116 1765 109Q1771 106 1771 98Q1771 88 1768 88Q1765 89 1760 83Q1763 78 1764 74Q1766 70 1768 65Q1768 59 1763 51Q1759 44 1764 39Q1754 32 1751 20Q1747 18 1742 14Q1738 10 1734 10Q1730 10 1726 11Q1723 13 1719 13Q1709 13 1700 9Q1692 5 1681 6Q1665 8 1660 12Q1655 16 1650 21Q1645 26 1640 31Q1635 36 1629 38Q1628 41 1622 47Q1617 54 1610 60Q1604 66 1597 71Q1590 76 1587 77Q1579 85 1578 89Q1577 93 1570 93Q1571 100 1568 104Q1566 109 1563 113Q1560 118 1556 122Q1553 126 1552 132Q1542 134 1539 142Q1536 150 1525 150Q1523 157 1518 159Q1513 162 1508 164Q1507 169 1505 169Q1503 170 1505 176Q1494 184 1484 193Q1474 203 1462 211Q1460 219 1455 225Q1451 232 1443 236Q1443 240 1439 247Q1435 255 1430 263Q1425 271 1420 278Q1415 285 1412 288Q1407 293 1407 295Q1408 298 1401 303Q1396 306 1397 308Q1398 311 1395 315Q1393 320 1388 323Q1384 327 1380 331Q1375 332 1373 330Q1371 329 1370 327Q1369 325 1368 323Q1367 321 1363 321Q1364 316 1365 312Q1367 308 1367 303Q1367 298 1364 292Q1361 286 1367 284Q1363 276 1362 266Q1362 257 1367 249Q1361 248 1360 244Q1359 240 1360 234Q1362 229 1364 223Q1366 218 1366 215Q1366 210 1364 205Q1363 201 1363 196Q1363 186 1368 176Q1373 166 1379 158Q1384 152 1385 145Q1387 138 1390 132Q1386 124 1389 116Q1392 108 1393 99Q1395 96 1397 93Q1400 91 1402 87Q1397 85 1397 80Q1398 75 1396 71Q1396 64 1398 59Q1400 54 1400 49Q1401 45 1398 41Q1396 37 1388 32Q1389 20 1386 16Q1383 12 1377 3Q1369 2 1363 1Q1358 1 1352 6Q1344 6 1344 -2Q1335 3 1325 7Q1315 12 1307 17Q1307 27 1306 36Q1306 45 1306 55L1306 73Q1306 78 1304 80Q1302 83 1299 86Q1301 95 1301 108Q1302 122 1294 129Q1293 144 1292 159Q1292 174 1289 189Q1298 200 1293 214Q1289 229 1289 242Q1289 245 1290 248Q1292 251 1292 254Q1292 270 1289 285Q1287 300 1287 316Q1287 323 1289 330Q1292 337 1292 345Q1292 354 1291 363Q1290 373 1288 382Q1287 385 1285 390Q1284 396 1284 398Q1284 403 1285 406Q1287 410 1289 415Q1282 441 1280 468Q1279 495 1279 521Q1283 525 1288 529Q1293 534 1298 538Q1304 543 1308 547Q1313 551 1314 551Q1317 552 1322 551Q1328 551 1333 549Q1339 548 1344 546Q1349 545 1350 543Q1352 540 1353 537Q1355 534 1357 532Q1360 529 1364 528Q1369 528 1374 520Q1377 515 1377 513Q1377 512 1378 511Q1379 510 1381 509Q1383 508 1389 505Q1397 494 1402 479Q1408 465 1414 450Q1420 436 1427 422Q1435 409 1448 399Q1448 385 1462 376Q1462 365 1466 363Q1470 361 1475 354Q1478 341 1486 332Q1495 324 1503 314Q1505 311 1506 308Q1507 305 1512 304Q1511 298 1514 296Q1518 295 1517 290Q1529 281 1529 275Q1530 269 1540 269Q1538 265 1541 262Q1544 259 1548 256Q1553 253 1558 249Q1563 245 1565 239L1577 239Q1579 228 1588 223Q1597 218 1600 207Q1605 205 1609 201Q1614 197 1619 195Q1620 187 1624 182Q1629 177 1636 173Q1635 165 1641 157Q1647 150 1653 147Q1658 148 1657 143Q1657 139 1665 137Q1681 153 1672 176Q1677 181 1676 191Q1676 201 1676 207Q1676 216 1678 225Q1680 235 1680 244Q1680 251 1677 259Q1678 261 1680 268Q1682 275 1683 283Q1685 291 1686 298Q1687 305 1687 307Q1687 312 1684 314Q1682 316 1681 320Q1684 323 1686 326Q1689 329 1691 332Q1692 341 1688 342Q1684 343 1684 347Q1684 355 1686 363Q1689 371 1689 379Q1689 383 1687 386Q1686 390 1686 394Q1686 401 1688 407Q1691 413 1691 419Q1691 424 1688 433Q1686 443 1681 445Q1683 460 1684 475Q1685 490 1674 503Q1673 514 1672 524Q1672 535 1680 544Q1687 546 1693 548Q1700 551 1703 559Q1714 559 1724 559Q1735 560 1746 557Q1753 545 1759 534Q1765 523 1760 509Q1762 504 1765 498Q1768 492 1768 486Q1768 482 1766 479Q1765 476 1765 473Q1765 468 1766 467Q1768 466 1770 463ZM2315 487Q2309 482 2302 472Q2296 462 2290 460Q2288 459 2285 459Q2282 460 2279 460Q2274 460 2272 458Q2270 456 2266 455Q2259 459 2252 460Q2245 461 2238 465Q2232 465 2229 462Q2226 459 2221 459Q2216 459 2211 461Q2207 463 2203 458Q2184 464 2164 466Q2145 469 2126 474Q2118 470 2110 470Q2103 471 2095 469Q2092 468 2089 466Q2086 465 2083 465Q2079 465 2076 466Q2073 467 2069 467Q2063 467 2057 464Q2051 462 2045 462Q2040 462 2037 464Q2034 467 2029 462Q2026 467 2022 464Q2019 462 2016 460Q2000 460 1994 461Q1989 463 1982 462Q1982 455 1982 442Q1982 429 1982 415Q1983 402 1983 390Q1983 379 1982 375Q1985 368 1992 368Q2000 368 2005 368Q2019 362 2033 361Q2048 361 2062 361Q2067 361 2070 362Q2074 363 2079 363Q2083 363 2091 361Q2100 360 2108 359Q2117 359 2123 361Q2130 363 2130 371Q2141 373 2145 367Q2150 361 2155 361Q2160 361 2162 365Q2164 369 2168 371Q2172 371 2173 367Q2174 364 2181 364Q2187 364 2194 368Q2202 373 2210 363Q2217 361 2220 363Q2223 365 2229 366Q2236 354 2245 343Q2254 333 2259 320Q2256 320 2252 317Q2248 314 2245 309Q2242 305 2240 301Q2238 297 2239 294Q2233 289 2226 284Q2220 280 2212 280Q2204 280 2202 283Q2201 286 2196 286Q2191 286 2187 284Q2184 283 2180 283Q2175 283 2169 284Q2164 286 2158 286Q2151 286 2144 283Q2138 281 2131 281Q2126 281 2122 283Q2119 285 2115 286Q2108 287 2102 287Q2096 288 2089 288Q2084 288 2080 285Q2077 283 2072 283Q2067 283 2061 284Q2056 286 2051 286Q2047 286 2044 285Q2041 284 2038 284Q2020 282 2009 280Q1998 279 1987 276Q1988 265 1988 254Q1989 243 1994 233Q1994 230 1991 229Q1989 228 1989 223Q1997 213 1998 201Q2000 190 1999 178Q1998 166 1997 154Q1996 142 2001 130Q1998 122 1996 115Q1995 109 1996 101Q2003 91 2014 91Q2019 91 2023 91Q2027 92 2032 92Q2036 92 2039 91Q2042 90 2046 90Q2058 90 2070 91Q2082 93 2094 93Q2098 93 2101 92Q2105 92 2109 92Q2116 92 2122 93Q2129 95 2136 95Q2141 95 2145 93Q2149 92 2154 92Q2163 92 2171 95Q2180 98 2189 98Q2191 98 2194 97Q2197 97 2199 97Q2204 97 2206 101Q2208 106 2210 107Q2215 108 2220 109Q2225 110 2230 111Q2234 112 2236 108Q2239 105 2240 102Q2249 101 2254 96Q2260 91 2268 90Q2270 85 2273 81Q2276 78 2281 78Q2279 70 2283 61Q2277 59 2272 54Q2268 49 2263 47Q2264 41 2265 35Q2266 30 2265 23Q2263 21 2259 21Q2256 22 2253 22Q2246 22 2244 17Q2243 13 2238 13Q2235 15 2230 15Q2225 15 2220 15Q2215 15 2210 15Q2206 15 2203 17Q2197 17 2193 14Q2189 12 2185 8Q2175 12 2166 9Q2158 6 2150 1Q2146 5 2142 5Q2139 5 2134 4Q2134 7 2131 9Q2129 12 2128 15Q2111 12 2094 13Q2077 15 2060 10Q2051 15 2038 15Q2026 15 2017 8Q2009 12 2000 8Q1991 5 1982 5Q1969 8 1966 5Q1964 3 1961 3Q1956 3 1951 3Q1947 3 1942 5Q1937 12 1933 12Q1930 12 1926 14Q1925 22 1917 29Q1909 36 1904 41Q1907 43 1910 44Q1914 46 1914 50Q1907 60 1906 64Q1906 68 1906 72Q1907 77 1906 81Q1906 86 1902 89Q1912 92 1912 96Q1912 110 1908 122Q1904 134 1904 148Q1912 156 1911 159Q1911 163 1911 173Q1911 184 1912 193Q1914 203 1905 211Q1907 221 1905 230Q1904 240 1904 250Q1904 262 1906 273Q1909 285 1909 297Q1909 304 1906 307Q1904 310 1904 313Q1907 326 1905 329Q1903 333 1902 338Q1900 353 1901 369Q1903 385 1903 401Q1903 412 1899 426Q1896 440 1898 446Q1896 449 1895 453Q1894 457 1890 459Q1896 467 1889 473Q1883 480 1883 488Q1883 497 1886 503Q1890 509 1886 519Q1895 523 1906 526Q1911 531 1912 534Q1913 538 1923 538Q1940 538 1956 535Q1972 533 1989 530Q1993 531 1996 531Q1999 532 2002 534Q2010 530 2017 530Q2024 531 2030 533Q2037 535 2043 537Q2050 540 2057 540Q2065 540 2072 538Q2079 537 2087 537Q2113 537 2139 540Q2166 544 2192 542Q2201 537 2199 533Q2203 535 2206 536Q2210 537 2215 537Q2227 537 2242 536Q2258 536 2269 533Q2275 527 2279 526Q2284 524 2288 522Q2292 521 2297 519Q2301 517 2304 515Q2308 514 2312 512Q2319 502 2314 497Q2310 493 2315 487ZM2821 218Q2816 196 2818 174Q2821 152 2816 131Q2814 118 2806 107Q2799 96 2801 82Q2798 81 2793 77Q2789 73 2784 68Q2780 63 2776 58Q2773 54 2772 51Q2757 39 2746 30Q2736 21 2726 11Q2718 12 2710 11Q2703 10 2698 2Q2689 4 2680 1Q2672 -1 2662 -1Q2658 -1 2655 1Q2652 4 2647 4Q2644 4 2641 2Q2638 1 2635 1Q2630 1 2624 2Q2618 3 2613 3Q2611 3 2605 1Q2599 -1 2592 -4Q2586 -6 2580 -9Q2575 -12 2574 -13Q2562 -8 2551 -3Q2540 2 2527 -1Q2515 10 2502 11Q2490 12 2476 14Q2472 14 2471 17Q2471 21 2471 24Q2457 22 2449 23Q2441 25 2435 29Q2430 34 2424 40Q2419 46 2410 52Q2412 58 2410 62Q2409 67 2406 71Q2403 76 2400 80Q2398 85 2399 93Q2392 106 2377 114Q2376 119 2374 122Q2372 125 2372 132Q2372 138 2368 139Q2364 141 2364 144Q2369 153 2376 159Q2384 165 2388 174Q2396 171 2399 172Q2402 174 2410 168Q2412 166 2417 163Q2423 160 2430 156Q2437 152 2443 149Q2449 146 2451 145Q2453 133 2460 127Q2468 121 2472 110Q2477 108 2480 106Q2483 105 2490 107Q2492 103 2496 101Q2500 99 2502 95Q2517 97 2525 93Q2533 89 2546 88Q2548 85 2550 82Q2552 80 2554 78Q2568 79 2584 78Q2601 77 2614 84Q2619 79 2624 81Q2629 83 2634 83Q2639 83 2643 80Q2648 78 2653 78Q2658 78 2662 79Q2667 80 2672 80Q2678 80 2678 85Q2679 90 2683 90Q2691 90 2699 97Q2708 104 2714 109Q2719 109 2720 112Q2722 116 2729 118Q2740 129 2740 142Q2741 155 2735 168Q2735 173 2738 177Q2742 182 2742 187Q2742 197 2735 207Q2728 217 2723 226Q2721 229 2719 229Q2717 230 2714 231Q2712 236 2710 236Q2709 237 2704 238Q2701 241 2695 245Q2689 249 2685 249Q2670 249 2669 252Q2669 255 2655 255Q2643 255 2631 250Q2628 252 2622 254Q2616 256 2609 256Q2603 257 2597 256Q2592 255 2589 252Q2587 254 2581 257Q2575 261 2573 261Q2542 261 2516 268Q2491 276 2465 276Q2452 282 2449 284Q2446 286 2440 286Q2435 292 2431 297Q2428 303 2422 307Q2422 316 2418 323Q2415 330 2410 336Q2406 342 2402 348Q2399 355 2399 364Q2392 376 2384 384Q2381 405 2384 431Q2387 458 2404 473L2404 489Q2414 489 2420 492Q2427 496 2432 501Q2438 506 2443 511Q2449 516 2457 519Q2462 521 2464 525Q2466 529 2468 534Q2490 532 2512 538Q2534 545 2556 549Q2561 550 2564 554Q2567 558 2571 561Q2578 560 2583 557Q2589 555 2595 554Q2600 552 2604 553Q2608 555 2613 555Q2618 555 2624 549Q2640 550 2648 544Q2656 538 2664 539Q2670 531 2680 527Q2690 523 2700 523Q2701 518 2705 516Q2709 514 2710 509Q2723 507 2729 498Q2736 490 2748 487Q2750 482 2752 479Q2755 477 2757 472Q2764 473 2765 471Q2767 469 2772 467Q2779 453 2784 435Q2779 427 2775 418Q2771 410 2763 405Q2737 405 2720 415Q2703 425 2686 444Q2681 446 2673 446Q2665 447 2662 450Q2652 459 2647 458Q2643 458 2638 460Q2627 462 2616 467Q2605 472 2593 472Q2587 472 2582 470Q2578 468 2573 467Q2568 466 2564 467Q2561 468 2556 468Q2548 468 2545 465Q2543 462 2541 462Q2528 462 2519 458Q2511 454 2505 452Q2501 450 2498 447Q2495 445 2494 440Q2483 438 2479 431Q2475 425 2467 422Q2464 417 2469 412Q2465 406 2467 402Q2469 399 2472 395Q2476 392 2480 387Q2484 383 2484 375Q2484 368 2490 366Q2497 365 2501 361Q2506 357 2514 352Q2522 348 2527 348Q2530 348 2532 349Q2535 350 2538 350Q2545 350 2550 347Q2556 345 2562 345Q2565 345 2568 345Q2571 346 2574 346Q2585 346 2593 342Q2602 339 2614 346Q2627 339 2636 340Q2646 341 2652 337Q2655 335 2657 333Q2660 331 2663 331Q2666 331 2668 332Q2671 333 2673 333Q2677 333 2681 331Q2685 329 2688 334Q2694 327 2703 328Q2712 329 2720 328Q2723 323 2724 321Q2725 320 2724 313Q2733 314 2738 312Q2743 311 2746 308Q2750 305 2753 302Q2757 300 2763 299Q2766 290 2771 283Q2777 276 2787 274Q2790 266 2796 259Q2802 253 2809 248Q2810 231 2821 218Z" fill="#ff0000" style=""></path></g></g></g></svg>