<svg xmlns="http://www.w3.org/2000/svg" version="1.1" viewBox="24.529 -764.003 5448.624 785.387"><desc>Created with Snap</desc><defs></defs><g><g><g transform="matrix(1,0,0,-1,0,0)"><g transform="matrix(1,0,0,1,0,0)"><path d="M65 664Q139 680 205 680Q271 680 322 675Q374 670 426 656Q536 625 562 572Q569 561 569 546Q569 502 492 451Q441 417 346 382Q579 369 662 314Q708 285 708 246Q708 192 632 134Q549 72 420 31Q301 -7 199 -7Q121 -7 65 16Q63 80 60 148Q52 299 52 402Q52 506 59 618Q48 618 39 620Q30 623 30 640Q30 664 65 664ZM131 299L155 66Q316 75 419 104Q522 134 567 168Q613 203 613 235Q613 277 553 302Q488 328 380 328Q273 328 131 299ZM248 615L223 615Q141 615 131 598L121 397Q211 397 340 440Q424 469 463 504Q483 522 483 541Q483 560 468 572Q454 585 431 593Q409 601 381 605Q354 610 328 612Q288 615 248 615Z" fill="#ff0000" style=""></path></g><g transform="matrix(1,0,0,1,728,0)"><g transform="matrix(1.9385,0,0,1.9385,-204.4462,1039.3433)"><g transform="matrix(1,0,0,-1,0,0)"><path d="M601,512.36c-1.52-6.1-19.2-7.15-41.87-3.12-8.8.28-11.7-8.15-12.9-12.94l-11.1-47.52c21.5-5.38,35.4-16.23,41.29-32.31,15.22-41.51-30-102.23-31.91-104.8l-2.08-2.76-81.37,16.32-.61,3.75c-9.16,56-4.21,92.08,15.14,110.3a46.44,46.44,0,0,0,24.89,11.89,77.81,77.81,0,0,0,24.35-.3l11.37,48.64c1.63,11.42-2.4,14.77-5.61,16.38-19.52,6.82-35.77,16.82-34.36,22.5,1.81,7.29,26.73,7.37,55.66.18S602.82,519.65,601,512.36ZM483.14,431.27c-15.85-14.93-20-47.47-12.42-96.76l67-13.44c8.4,12,39.89,60.24,28.37,91.63-4.74,12.91-16.75,21.64-35.71,25.93C509.3,443.4,493.4,440.92,483.14,431.27Zm80.41,98.13q-4.12,1.36-8.33,2.53c-5.59,1.56-11.23,2.93-16.89,4.19a113,113,0,0,1-17.42,2.65,50.09,50.09,0,0,1-9.06-.19l-2.32-.39a23.41,23.41,0,0,1-2.35-.63,14.35,14.35,0,0,1-2.38-1,10.61,10.61,0,0,1-1.22-.73,6.3,6.3,0,0,1-.62-.49,3,3,0,0,1-.34-.31,3.5,3.5,0,0,1-.44-.51l4.3-3a.28.28,0,0,0-.06-.08l0,0s0,0,0,0l0,0a2.12,2.12,0,0,0,.21.2,7.29,7.29,0,0,0,.62.43,9.56,9.56,0,0,0,1.57.77,19,19,0,0,0,1.8.62l1.93.46a44.44,44.44,0,0,0,8.23.75,112.49,112.49,0,0,0,17-1.37c5.72-.8,11.42-1.7,17.08-2.8q4.25-.83,8.45-1.84a51.64,51.64,0,0,0,8.25-2.6A52.61,52.61,0,0,1,563.55,529.4Z" fill="#ff0000" style=""></path><path d="M440.58,249.82C413,210.5,360.24,207.3,348.8,203.62c13.26-3.18,73.65,5.91,84.57,14.08,8.21,6.15,14.62,14.33,20.36,22.73,3,4.36,5.78,8.82,8.62,13.26,1.39,2.16,3,4.26,4.22,6.5.57,1,2.14,4.54,2.46,1.23,1.39-14.08,1.33-29-1.26-43-.8-4.32-1.48-9.44-3.65-13.3-1.83-3.25-3.64-6.24-3.75-10.17s2.59-8.12,6.41-8a7.34,7.34,0,0,1,5.08,2.93c3.05,3.7,3.81,8.78,3.82,13.58,0,4.19-2,10.81,1.26,14.06a2.35,2.35,0,0,0,1,.65c1.33.39,2.39-1.16,2.73-2.5.69-2.74.46-5.67,1.3-8.37s3.43-5.26,6.17-4.59a5.27,5.27,0,0,1,3.53,4.26,16.42,16.42,0,0,1-.33,5.79c-1,6-2.17,12.49-1.72,18.55a143.9,143.9,0,0,1,.28,17.26c-1.52,34-3.69,67.88-3.45,102,.15,20.79,5.49,41.9,17.13,59.36,9.17,12,29.23,21,42.91,11.06,15.86-11.57,16.41-42.3,16.41-42.3s10.71,45.88-29.83,54.94a69.52,69.52,0,0,1-16.57,1.83c-40.07-.85-43.52-44.12-43.32-74.67.08-12.77.07-25.15-2.65-37.69a239.38,239.38,0,0,0-10.16-34.27C455.19,275.33,448.94,261.73,440.58,249.82Z" fill="#ff0000" style=""></path><path d="M135.76,307c-8.22,16.64-12.32,34.37-14.81,52.71-5,36.82-1.35,75.55,15.52,108.66,28.44,55.83,91.47,83.34,150.94,64a185,185,0,0,0,33.53-14.37c14.74-8.28,28-19.08,39.9-31a250.07,250.07,0,0,0,40.34-53c5.79-10.19,10.78-23.26,4.34-33.05q-7.84,7.18-16.34,13.61c-1.66,1.26-3.83,2.55-5.69,1.61-2.06-1-2.1-3.9-3.1-6-1.89-4-7.56-4.76-11.51-2.84s-6.6,5.72-9.15,9.31c-15.81,22.21-34.86,42.62-58.37,56.43s-51.88,20.57-78.53,14.82c-28.87-6.22-53.56-35.87-63.71-62.41a118.21,118.21,0,0,1-6.45-58.23c1.27-9.1,3.18-19.49,7.4-27.75,1.76-3.45,13.05-14.91,9.25-5.2A34.24,34.24,0,0,0,167,344.24c-.12,1.71-.06,3.59,1,4.91,1.81,2.18,5.54,1.55,7.51-.48s2.7-4.93,3.49-7.65c4.29-14.76,13.25-26.23,22.45-38.14,12.78-16.55,28-30.92,42.69-45.71,29-28.92,56.52-40.48,96.89-43.42,25.63-1.87,55-1.45,79.23,8,13.8,5.37,26.48,14.82,33.24,28,1.29-4.57-4.63-11.59-6.92-15.4a75.21,75.21,0,0,0-11-14.38,114.46,114.46,0,0,0-25.58-19.71c-15-8.73-34.23-12.73-50.88-17.18s-35.88-6.17-53.11-6.42c-9.09-.13-39.52-3.63-42.92,8.44-1.93,6.89,7.36,8.23-.75,13.66-6.51,4.37-15.34,6.8-22.44,10.2-15.2,7.29-30.06,15.52-43.13,26.26C170.89,255.2,149.69,278.74,135.76,307Z" fill="#ff0000" style=""></path><desc>Created with Snap</desc><defs></defs></g></g></g><g transform="matrix(1,0,0,1,1706.7663,0)"><path d="M522 555Q457 619 378 619Q303 619 234 562Q147 490 114 376Q102 335 102 308Q102 281 104 266Q104 167 171 114Q234 65 332 65Q466 76 589 168Q623 194 661 218Q675 218 689 214Q704 210 704 191Q605 105 537 67Q411 -1 309 -1Q302 -1 296 -1Q185 -1 106 68Q22 141 22 250Q22 332 51 407Q81 482 132 539Q184 597 254 631Q325 665 406 665Q475 665 496 646Q522 623 522 555Z" fill="#ff0000" style=""></path></g><g transform="matrix(1,0,0,1,2431.7663,0)"><path d="M46 168Q22 222 22 295Q22 368 45 424Q69 481 110 522Q197 607 328 607Q465 607 554 544Q654 472 654 338Q654 172 577 93Q501 14 339 14Q114 14 46 168ZM104 315Q104 79 342 79Q459 79 532 149Q605 218 605 330Q605 435 518 490Q444 538 331 538Q241 538 172 473Q104 408 104 315Z" fill="#ff0000" style=""></path></g><g transform="matrix(1,0,0,1,3117.7663,0)"><path d="M763 166Q813 328 879 758Q942 758 945 719Q946 707 946 702Q947 697 943 667Q939 638 931 585Q924 532 913 462Q902 392 888 316Q854 137 818 14Q782 -11 762 6Q753 15 746 30Q739 46 730 66Q717 83 682 156Q647 229 625 272Q604 315 584 352Q538 435 507 449Q471 393 379 142Q363 98 350 60Q337 23 328 0L266 3L16 581Q14 586 14 591Q14 596 17 601Q21 606 30 610Q47 616 64 616Q81 616 88 609Q96 603 100 593Q105 583 108 571Q111 559 119 540Q128 521 144 484Q161 447 180 406Q199 365 218 324Q237 284 254 250Q290 175 299 166Q415 452 442 505Q469 559 476 571Q487 588 493 588Q536 588 638 396Q666 345 690 298Q749 184 763 166Z" fill="#ff0000" style=""></path></g><g transform="matrix(1,0,0,1,4080.7663,0)"><path d="M105 565L105 16Q105 -1 81 -1Q63 -1 38 16Q26 43 26 145Q26 247 28 313Q30 380 32 436Q38 558 38 565Q67 582 86 582Q105 582 105 565Z" fill="#ff0000" style=""></path></g><g transform="matrix(1,0,0,1,4235.7663,0)"><path d="M605 615L608 353Q608 49 583 -3L510 3Q455 98 325 270Q274 338 223 405Q173 472 131 538Q111 449 111 182Q111 80 107 10Q88 -8 65 -8Q43 -8 34 -4Q25 1 25 11Q25 22 27 44Q30 67 33 120Q37 173 40 232Q48 386 48 497Q48 609 46 681Q68 701 80 710Q92 719 107 709Q122 700 145 668Q169 637 212 575Q359 366 501 183L520 681Q531 701 542 708Q553 716 571 716Q606 716 606 652L605 615Z" fill="#ff0000" style=""></path></g><g transform="matrix(1,0,0,1,4877.7663,0)"><path d="M130 630L353 635Q453 635 486 622L486 573Q459 569 412 568Q365 568 312 567Q164 564 110 552Q93 472 94 443Q95 414 96 398Q100 359 100 306Q168 306 255 318Q343 330 391 335Q439 341 490 341L490 286L107 238L113 74Q212 74 315 83Q419 93 472 97Q526 102 586 102Q586 82 574 64Q550 32 531 45Q355 26 216 15Q78 4 30 0L34 638Q60 630 130 630Z" fill="#ff0000" style=""></path></g></g></g><g transform="matrix(0.75,0,0,0.75,0,865.2273)"></g></g></svg>